<?xml version="1.0" encoding="utf-8"?>
<!-- Generator: Adobe Illustrator 23.0.0, SVG Export Plug-In . SVG Version: 6.00 Build 0)  -->
<svg version="1.1"
	 id="svg12" xmlns:cc="http://creativecommons.org/ns#" xmlns:dc="http://purl.org/dc/elements/1.1/" xmlns:inkscape="http://www.inkscape.org/namespaces/inkscape" xmlns:rdf="http://www.w3.org/1999/02/22-rdf-syntax-ns#" xmlns:sodipodi="http://sodipodi.sourceforge.net/DTD/sodipodi-0.dtd" xmlns:svg="http://www.w3.org/2000/svg"
	 xmlns="http://www.w3.org/2000/svg" xmlns:xlink="http://www.w3.org/1999/xlink" x="0px" y="0px" viewBox="0 0 82 18"
	 style="enable-background:new 0 0 82 18;" xml:space="preserve">
<style type="text/css">
	.st0{fill:#B3DB07;stroke:#27323A;stroke-width:2;stroke-miterlimit:10;}
	.st1{fill:#B7D250;}
	.st2{fill:#EF307E;stroke:#27323A;stroke-width:2;stroke-miterlimit:10;}
	.st3{fill:#EF5087;}
</style>
<path class="st0" d="M53.2,1.4c-4.7,0-7.5,3.2-7.5,7.6c0,4.5,2.8,7.7,7.5,7.7h1.7v-4h-1.7c-2.4,0-3.5-1.7-3.5-3.7
	c0-2,1.2-3.6,3.5-3.6h3.8v5.2v2.1v4h4v-0.2v-3.8V5.4V2.1V1.4H53.2z"/>
<path class="st1" d="M53.2,1.4c-4.7,0-7.5,3.2-7.5,7.6c0,4.5,2.8,7.7,7.5,7.7h1.7v-4h-1.7c-2.4,0-3.5-1.7-3.5-3.7
	c0-2,1.2-3.6,3.5-3.6h3.8v5.2v2.1v4h4v-0.2v-3.8V5.4V2.1V1.4H53.2z"/>
<sodipodi:namedview  bordercolor="#666666" borderopacity="1" gridtolerance="10" guidetolerance="10" id="namedview14" inkscape:current-layer="svg12" inkscape:cx="41" inkscape:cy="9" inkscape:pageopacity="0" inkscape:pageshadow="2" inkscape:window-height="480" inkscape:window-maximized="0" inkscape:window-width="1156" inkscape:window-x="3138" inkscape:window-y="329" inkscape:zoom="3.4634146" objecttolerance="10" pagecolor="#ffffff" showgrid="false">
	</sodipodi:namedview>
<path class="st2" d="M74.6,7.3L72,5.9l-2.6,1.4v3l2.6,1.4l2.6-1.4V7.3z M72,7.7l1,0.6v1.1l-1,0.6l-1-0.6V8.3L72,7.7z"/>
<polygon class="st2" points="72,2.4 66.5,5.5 66.5,8.7 68.7,9.9 68.7,6.6 72,4.8 77.5,7.9 77.5,5.5 "/>
<polygon class="st0" points="75.5,7.6 75.5,10.9 72,12.7 66.5,9.6 66.5,12 72,15.1 77.5,12 77.5,8.7 "/>
<path class="st3" d="M74.4,7.4L72,6.1l-2.3,1.3v2.7l2.3,1.3l2.3-1.3V7.4z M72,7.8l0.9,0.5v1L72,9.8l-0.9-0.5v-1L72,7.8z"/>
<polygon class="st3" points="72,2.4 66.5,5.5 66.5,8.7 68.7,9.9 68.7,6.6 72,4.8 77.5,7.9 77.5,5.5 "/>
<polygon class="st1" points="75.5,7.6 75.5,10.9 72,12.7 66.5,9.6 66.5,12 72,15.1 77.5,12 77.5,8.7 "/>
<path class="st2" d="M4.4,9c0,4.5,2.9,7.6,7.6,7.6h7.2v-3.9h-7.2C9.6,12.7,8.4,11,8.4,9c0-2,1.2-3.7,3.6-3.7h7.2V1.4h-7.2
	C7.2,1.4,4.4,4.5,4.4,9"/>
<path class="st0" d="M31.5,9.2c0,2.4-1.7,3.6-3.6,3.6s-3.6-1.3-3.6-3.6V1.3h-4v7.9c0,4.7,3.2,7.5,7.6,7.5c4.5,0,7.6-2.8,7.6-7.5V1.3
	h-4V9.2z"/>
<path class="st2" d="M36.6,9v7.7h4V9c0-2,1.2-3.6,3.5-3.6H47v-4h-2.9C39.4,1.3,36.6,4.5,36.6,9"/>
<path class="st3" d="M4.4,9c0,4.5,2.9,7.6,7.6,7.6h7.2v-3.9h-7.2C9.6,12.7,8.4,11,8.4,9c0-2,1.2-3.7,3.6-3.7h7.2V1.4h-7.2
	C7.2,1.4,4.4,4.5,4.4,9L4.4,9z"/>
<path class="st1" d="M31.5,9.2c0,2.4-1.7,3.6-3.6,3.6s-3.6-1.3-3.6-3.6V1.3h-4v7.9c0,4.7,3.2,7.5,7.6,7.5c4.5,0,7.6-2.8,7.6-7.5V1.3
	h-4V9.2z"/>
<path class="st3" d="M36.6,9v7.7h4V9c0-2,1.2-3.6,3.5-3.6H47v-4h-2.9C39.4,1.3,36.6,4.5,36.6,9L36.6,9z"/>
</svg>
